<?xml version="1.0" standalone="no"?>
<!DOCTYPE svg PUBLIC "-//W3C//DTD SVG 20010904//EN"
 "http://www.w3.org/TR/2001/REC-SVG-20010904/DTD/svg10.dtd">
<svg version="1.0" xmlns="http://www.w3.org/2000/svg"
 width="1707.000000pt" height="1707.000000pt" viewBox="0 0 1707.000000 1707.000000"
 preserveAspectRatio="xMidYMid meet">
<metadata>
Created by potrace 1.14, written by Peter Selinger 2001-2017
</metadata>
<g transform="translate(0.000000,1707.000000) scale(0.100000,-0.100000)"
fill="#000000" stroke="none">
<path d="M8515 17039 c-22 -16 -47 -34 -55 -41 -8 -7 -30 -26 -50 -41 -96 -76
-544 -510 -611 -593 -8 -10 -53 -62 -99 -114 -46 -52 -89 -101 -95 -108 -5 -7
-23 -28 -40 -47 -16 -18 -52 -62 -80 -96 -59 -75 -74 -94 -99 -122 -39 -46
-275 -367 -337 -457 -35 -52 -66 -97 -69 -100 -13 -13 -60 -91 -60 -100 0 -5
-5 -10 -10 -10 -6 0 -16 -12 -23 -27 -6 -16 -14 -30 -18 -33 -3 -3 -19 -27
-35 -53 -16 -27 -37 -61 -46 -75 -10 -15 -21 -34 -25 -42 -3 -8 -14 -26 -23
-40 -10 -14 -29 -45 -42 -70 -14 -25 -38 -67 -54 -95 -15 -27 -32 -51 -36 -53
-4 -2 -8 -11 -8 -21 0 -9 -4 -21 -9 -27 -9 -9 -54 -91 -109 -199 -14 -27 -28
-52 -32 -55 -4 -3 -10 -17 -13 -32 -4 -15 -14 -33 -22 -42 -8 -8 -15 -18 -15
-22 0 -4 -17 -44 -39 -88 -112 -233 -171 -365 -243 -546 -27 -69 -53 -134 -58
-145 -10 -24 -22 -56 -26 -70 -1 -5 -12 -33 -23 -61 -11 -29 -17 -54 -14 -58
4 -3 1 -6 -5 -6 -7 0 -12 -8 -12 -18 0 -10 -5 -23 -12 -30 -7 -7 -9 -12 -5
-12 4 0 1 -15 -7 -34 -8 -19 -12 -37 -8 -40 3 -3 1 -6 -5 -6 -5 0 -10 -6 -10
-12 0 -7 -13 -49 -28 -93 -14 -44 -28 -87 -30 -95 -3 -8 -16 -53 -30 -100 -15
-47 -28 -92 -30 -100 -2 -8 -4 -15 -5 -15 -1 0 -3 -7 -5 -15 -2 -8 -29 -114
-59 -234 -31 -121 -58 -229 -60 -240 -2 -12 -9 -41 -15 -66 -9 -40 -15 -71
-27 -135 -2 -11 -13 -67 -24 -125 -11 -58 -23 -121 -26 -140 -3 -19 -9 -57
-14 -85 -7 -42 -14 -87 -25 -165 -1 -8 -5 -40 -9 -70 -3 -30 -8 -66 -11 -80
-5 -26 -10 -64 -21 -165 -11 -98 -12 -116 -19 -200 -4 -44 -8 -96 -10 -117 -1
-20 -5 -41 -9 -46 -3 -6 -2 -13 4 -17 6 -4 8 -11 4 -16 -9 -16 -18 -368 -18
-754 0 -365 7 -541 28 -785 3 -30 8 -89 11 -130 3 -41 8 -85 10 -98 2 -13 7
-53 10 -90 4 -37 8 -74 10 -82 3 -8 7 -42 10 -75 3 -33 8 -76 10 -95 3 -19 8
-48 10 -65 2 -16 7 -50 11 -75 3 -25 7 -57 8 -72 0 -16 3 -28 6 -28 3 0 6 -12
7 -27 1 -16 4 -44 8 -63 3 -19 13 -75 21 -125 8 -49 17 -101 19 -115 3 -14 7
-38 10 -55 5 -30 11 -58 20 -105 3 -14 12 -59 20 -100 8 -41 17 -84 20 -95 2
-11 11 -49 19 -85 14 -64 15 -67 17 -72 0 -2 2 -12 4 -23 2 -11 5 -27 7 -35 3
-8 15 -60 27 -115 13 -55 39 -158 58 -230 19 -71 36 -141 39 -155 2 -14 7 -32
11 -40 3 -8 8 -24 10 -34 2 -11 10 -39 18 -63 8 -23 17 -57 20 -74 3 -18 11
-41 17 -53 6 -11 11 -23 10 -26 -2 -7 16 -75 41 -150 12 -36 22 -68 23 -72 1
-5 3 -10 4 -13 1 -3 4 -9 5 -15 1 -5 3 -11 5 -12 1 -2 3 -10 5 -18 1 -8 33
-107 71 -220 37 -113 69 -209 70 -215 10 -35 78 -215 90 -237 8 -16 13 -28 10
-28 -4 0 11 -41 49 -135 5 -11 9 -22 9 -25 2 -10 79 -205 92 -235 7 -16 23
-55 34 -85 12 -30 28 -68 35 -85 37 -82 117 -271 120 -280 1 -5 13 -35 27 -65
29 -64 41 -93 42 -100 1 -3 10 -25 20 -48 13 -29 26 -42 40 -43 12 -1 62 -3
111 -5 79 -3 119 -4 175 -4 8 0 742 -2 1631 -5 l1615 -6 11 23 c21 42 83 180
83 183 0 2 13 32 29 67 42 92 138 323 213 513 21 55 45 114 53 130 18 40 46
118 46 130 0 6 7 17 15 26 8 9 14 20 13 25 -2 8 9 41 30 89 21 46 36 91 33 98
-1 4 3 7 10 7 6 0 9 3 5 6 -3 3 -1 18 5 33 30 73 71 189 75 214 3 15 10 27 16
27 6 0 8 3 4 6 -3 4 5 35 18 70 13 35 22 64 19 64 -2 0 2 13 11 29 8 17 16 38
18 48 2 10 19 65 37 123 18 58 35 110 36 115 1 6 19 64 39 130 21 66 38 128
39 138 0 9 3 17 6 17 4 0 7 6 7 13 0 6 15 66 32 131 18 66 34 126 37 135 2 9
14 58 28 109 13 50 22 92 19 92 -3 0 -1 6 4 13 6 6 13 28 17 47 7 40 13 70 22
102 3 13 7 32 9 43 1 11 8 40 15 65 7 25 14 56 16 70 4 22 11 56 21 100 2 8 5
27 8 42 2 15 8 44 14 65 5 21 12 54 15 73 3 19 8 46 11 60 5 25 8 43 25 140 5
30 12 69 15 85 15 84 46 286 50 325 1 14 6 43 9 66 4 23 8 59 11 80 2 21 7 59
10 84 9 69 23 201 30 280 3 30 7 75 10 100 6 60 16 196 20 295 2 44 4 80 5 80
9 0 13 733 6 910 -9 209 -27 477 -41 592 -4 32 -9 78 -11 103 -4 48 -10 94
-19 150 -3 19 -7 55 -10 80 -2 25 -6 56 -9 70 -7 41 -18 113 -20 140 -1 14 -6
31 -10 38 -4 7 -5 12 -3 12 2 0 -2 33 -10 73 -7 39 -15 83 -17 97 -6 36 -14
81 -32 163 -8 39 -17 83 -19 97 -6 32 -13 65 -15 65 -2 0 -5 16 -14 60 -9 47
-13 65 -35 145 -11 41 -22 87 -25 102 -2 15 -9 42 -15 60 -6 18 -29 98 -51
178 -22 80 -43 152 -46 160 -3 8 -5 16 -5 17 0 2 -86 255 -140 413 -7 19 -20
53 -29 75 -10 22 -21 51 -25 65 -4 14 -14 41 -22 60 -8 19 -18 44 -23 55 -7
19 -35 87 -68 165 -8 19 -20 48 -28 64 -8 16 -14 35 -14 42 0 7 -4 14 -10 16
-5 2 -11 12 -14 23 -8 41 -19 65 -27 65 -5 0 -9 6 -9 13 0 13 -13 41 -101 223
-27 55 -49 105 -49 111 0 6 -4 13 -8 15 -5 2 -29 44 -54 93 -25 50 -73 139
-107 199 -34 60 -61 113 -61 118 0 4 -4 8 -10 8 -5 0 -10 4 -10 9 0 5 -18 39
-40 75 -22 36 -40 70 -40 76 0 5 -4 10 -9 10 -5 0 -14 14 -21 30 -7 17 -16 30
-21 30 -5 0 -9 4 -9 9 0 9 -118 200 -130 211 -5 4 -24 33 -55 81 -64 100 -238
339 -247 339 -4 0 -8 5 -8 11 0 11 -60 92 -72 97 -5 2 -8 9 -8 15 0 7 -9 18
-20 25 -11 7 -20 17 -20 23 0 5 -9 20 -21 32 -11 12 -30 35 -42 50 -33 42 -89
108 -114 135 -13 12 -23 25 -23 28 0 6 -128 149 -224 253 -127 136 -445 447
-542 531 -70 60 -156 120 -172 119 -9 0 -35 -13 -57 -30z m278 -432 c192 -194
357 -366 357 -372 0 -2 15 -19 33 -37 61 -64 162 -180 166 -192 2 -6 10 -15
17 -21 10 -8 65 -72 117 -135 10 -11 128 -160 165 -205 62 -79 202 -268 202
-275 0 -4 3 -10 8 -12 14 -6 232 -323 232 -337 0 -5 3 -11 8 -13 10 -4 92
-137 92 -149 0 -5 5 -9 10 -9 6 0 10 -7 10 -15 0 -8 5 -15 10 -15 6 0 10 -4
10 -9 0 -5 12 -30 28 -56 80 -138 204 -368 208 -385 0 -3 23 -52 50 -110 42
-88 85 -189 124 -295 4 -11 15 -38 23 -60 17 -44 36 -102 41 -131 3 -10 7 -26
11 -35 4 -12 0 -18 -17 -20 -26 -5 -325 -4 -1613 5 -500 4 -1306 9 -1790 11
-484 2 -885 4 -892 4 -19 2 25 117 152 391 106 230 188 395 199 402 6 4 8 8 4
8 -4 0 17 43 47 96 30 53 55 98 55 100 0 3 37 67 83 144 45 77 89 152 97 167
8 15 23 36 33 47 9 11 17 24 17 28 0 8 42 77 63 103 25 33 147 219 147 225 0
5 3 10 8 12 4 2 36 44 72 93 35 50 68 92 72 93 4 2 8 8 8 14 0 5 6 15 13 22 6
7 52 66 101 130 50 64 94 116 98 116 4 0 8 5 8 10 0 6 8 18 18 28 9 11 44 50
77 88 91 104 166 183 324 340 260 261 435 414 473 414 13 0 92 -72 221 -203z
m2 -4201 c33 -4 64 -11 70 -14 5 -4 21 -8 35 -10 27 -3 215 -60 240 -72 167
-82 226 -113 289 -154 42 -27 78 -52 81 -56 3 -3 20 -17 39 -30 54 -38 191
-167 256 -243 64 -74 145 -184 145 -197 0 -5 4 -10 8 -10 5 0 17 -19 28 -41
10 -23 23 -47 29 -53 22 -24 98 -195 125 -283 41 -129 60 -210 64 -274 2 -20
5 -40 9 -45 12 -21 -1 -365 -17 -441 -4 -15 -9 -39 -12 -53 -8 -39 -12 -55
-14 -55 -2 0 -7 -20 -15 -59 -8 -40 -73 -207 -87 -223 -6 -7 -8 -13 -4 -13 6
0 -40 -90 -93 -184 -45 -80 -139 -212 -186 -262 -11 -11 -36 -39 -56 -60 -47
-50 -139 -137 -139 -130 0 3 -10 -5 -23 -17 -58 -54 -151 -115 -280 -181 -85
-44 -186 -88 -207 -91 -3 0 -34 -10 -70 -22 -36 -12 -79 -24 -97 -26 -17 -3
-36 -8 -41 -11 -26 -16 -341 -25 -472 -12 -127 11 -270 46 -382 91 -32 13 -58
22 -58 19 0 -18 -362 190 -416 239 -7 7 -34 30 -61 52 -184 152 -391 409 -466
580 -10 22 -24 51 -31 65 -17 30 -72 202 -86 266 -21 93 -25 142 -24 329 1
173 4 214 20 297 3 15 5 30 5 33 0 2 6 23 14 45 8 22 12 40 9 40 -2 0 2 13 11
30 8 16 15 33 15 37 0 13 22 75 43 123 11 25 21 47 22 50 4 18 62 126 70 132
7 5 7 8 0 8 -6 0 -6 3 1 8 5 4 27 35 48 69 35 59 124 180 170 231 80 90 242
242 257 242 5 0 9 5 9 10 0 6 5 10 10 10 6 0 23 11 38 25 15 14 32 25 39 25 6
0 13 4 15 8 13 33 338 190 428 208 14 3 39 9 55 14 49 15 124 26 230 36 39 3
71 7 73 9 5 5 281 -3 337 -9z m-1137 -6659 l592 0 0 -433 0 -432 -713 -1 -713
0 -18 52 c-10 29 -25 68 -34 87 -8 19 -16 40 -17 45 -4 15 -44 116 -60 152 -8
17 -15 35 -15 40 0 7 -37 104 -61 158 -12 26 -56 148 -75 205 -8 25 -18 52
-23 60 -5 9 -12 30 -15 47 l-7 32 283 -6 c156 -2 550 -5 876 -6z m2917 -9 c6
-6 -37 -125 -90 -248 -14 -30 -52 -122 -86 -205 -34 -82 -66 -161 -72 -175 -6
-14 -11 -27 -12 -30 -1 -3 -9 -22 -18 -44 -9 -21 -17 -40 -17 -43 0 -2 -11
-28 -25 -58 l-24 -54 -711 0 -710 0 0 433 0 433 879 -1 c484 -1 883 -4 886 -8z"/>
<path d="M8788 16328 c35 -73 65 -137 66 -143 2 -5 14 -35 28 -65 41 -85 78
-170 100 -225 11 -27 25 -63 33 -80 7 -16 23 -57 35 -90 12 -33 26 -69 31 -80
10 -23 69 -202 74 -225 2 -8 4 -15 5 -15 1 0 3 -7 5 -15 1 -8 10 -40 19 -70 8
-30 18 -66 20 -80 3 -14 13 -56 21 -95 9 -38 18 -85 21 -104 3 -18 8 -43 10
-55 5 -22 17 -148 18 -178 0 -10 4 -18 9 -18 5 0 4 -6 -2 -13 -6 -8 -9 -16 -6
-18 6 -6 7 -127 1 -219 -5 -89 -13 -150 -28 -205 -5 -22 -10 -41 -9 -42 0 -3
-21 -55 -52 -125 -7 -16 -15 -28 -19 -28 -5 0 -8 -5 -8 -10 0 -12 -10 -25 -62
-81 -22 -24 -35 -46 -31 -55 4 -10 9 -11 17 -5 6 5 17 6 25 2 7 -4 30 -5 52
-1 22 4 42 3 45 -1 3 -5 13 -5 23 1 10 5 21 7 24 4 3 -3 22 -5 43 -4 22 0 46
1 54 1 8 0 27 -2 43 -4 15 -2 27 0 27 5 0 5 8 4 18 -1 10 -6 24 -6 32 -1 8 5
19 6 24 3 5 -4 216 -7 468 -7 454 -1 458 -1 454 19 -2 11 -37 85 -77 165 -40
80 -74 147 -74 150 -5 20 -30 60 -38 60 -6 0 -8 3 -4 6 3 3 -2 20 -12 37 -10
18 -44 82 -76 142 -32 61 -62 112 -67 113 -4 2 -8 10 -8 18 0 8 -16 40 -35 70
-19 30 -35 56 -35 58 0 3 -23 42 -51 88 -29 46 -59 96 -68 112 -9 17 -19 35
-24 40 -4 6 -67 101 -140 211 -136 205 -274 397 -289 403 -4 2 -8 8 -8 13 0 5
-7 17 -15 26 -8 10 -37 47 -65 83 -52 66 -115 142 -137 166 -7 7 -13 17 -13
22 0 6 -4 12 -9 14 -5 2 -35 32 -66 68 -79 90 -368 390 -375 390 -4 0 22 -59
58 -132z"/>
<path d="M8422 11419 c-29 -5 -66 -16 -82 -24 -17 -9 -31 -15 -32 -14 -4 3
-82 -34 -88 -41 -3 -3 -22 -16 -42 -29 -21 -12 -38 -27 -38 -32 0 -5 -4 -9
-10 -9 -40 0 -236 -271 -213 -294 4 -3 2 -6 -4 -6 -6 0 -14 -15 -18 -32 -4
-18 -9 -37 -10 -43 -21 -72 -25 -202 -8 -285 19 -91 82 -213 147 -288 31 -35
56 -61 56 -57 0 3 10 -5 23 -18 27 -28 97 -77 152 -105 121 -61 277 -86 406
-66 19 3 40 6 47 6 6 1 12 4 12 7 0 3 10 7 23 7 25 2 140 54 145 66 2 4 8 8
14 8 18 0 112 82 149 129 19 23 39 49 46 56 16 17 84 145 76 145 -3 0 -1 6 5
13 12 14 28 73 38 137 9 61 5 222 -6 250 -1 3 -2 9 -1 14 1 5 -21 57 -50 115
-46 93 -64 117 -146 199 -51 50 -99 92 -107 92 -8 0 -16 4 -18 8 -4 12 -126
68 -177 82 -55 14 -221 20 -289 9z"/>
<path d="M5367 7849 c-32 -9 -66 -21 -75 -25 -9 -4 -19 -8 -22 -8 -42 -10
-240 -140 -240 -158 0 -4 -4 -8 -9 -8 -11 0 -106 -94 -141 -139 -14 -18 -33
-42 -44 -54 -32 -39 -76 -105 -76 -116 0 -6 -4 -11 -10 -11 -5 0 -10 -6 -10
-14 0 -8 -4 -16 -8 -18 -9 -3 -85 -160 -109 -223 -8 -22 -21 -53 -28 -70 -12
-27 -51 -149 -60 -185 -2 -8 -11 -40 -19 -72 -17 -62 -16 -59 -45 -205 -21
-102 -28 -147 -36 -213 -2 -19 -7 -53 -9 -75 -11 -78 -15 -121 -21 -189 -3
-38 -8 -72 -10 -77 -3 -4 -1 -10 5 -14 6 -4 7 -12 3 -18 -4 -7 -8 -28 -10 -47
-5 -59 -4 -630 1 -720 3 -47 8 -128 11 -180 3 -52 7 -113 10 -135 3 -22 8 -78
11 -125 8 -102 8 -102 17 -117 4 -6 3 -14 -3 -18 -6 -4 -8 -11 -4 -16 3 -5 7
-33 10 -62 2 -29 6 -62 9 -74 3 -12 8 -46 10 -75 5 -50 11 -102 20 -158 2 -14
7 -50 10 -80 3 -30 8 -62 11 -71 2 -9 7 -36 10 -60 9 -75 13 -103 19 -129 3
-14 8 -47 11 -75 3 -27 9 -63 14 -80 5 -16 12 -50 15 -75 3 -25 10 -70 15
-100 6 -30 12 -64 14 -75 1 -11 8 -45 14 -75 15 -73 23 -121 25 -142 1 -10 5
-18 10 -18 4 0 6 -3 3 -8 -2 -4 2 -34 9 -67 8 -33 15 -61 15 -62 0 -2 1 -5 1
-8 1 -3 2 -13 3 -22 3 -26 26 -133 36 -168 5 -16 11 -46 14 -65 3 -19 14 -73
25 -120 11 -47 23 -102 27 -123 12 -67 19 -29 20 116 2 163 13 512 19 637 3
47 7 126 9 175 3 50 6 90 6 90 1 0 3 29 5 65 4 98 21 322 30 420 3 25 7 74 10
110 4 36 8 85 11 110 11 115 14 139 18 195 3 33 7 69 10 80 3 18 14 103 21
165 5 38 14 102 21 135 3 17 7 44 9 60 2 17 7 50 11 75 4 25 7 51 7 58 0 6 3
12 6 12 3 0 6 12 7 28 0 15 4 43 8 62 4 19 9 47 11 63 3 15 7 38 10 52 3 14 7
37 10 53 3 15 12 54 21 87 8 33 16 70 19 82 17 90 112 399 143 463 9 19 17 37
17 40 3 19 76 157 113 215 49 75 159 190 192 200 11 4 20 10 20 14 0 4 6 8 13
9 6 0 32 6 57 12 56 14 140 11 200 -6 25 -8 46 -14 47 -14 5 0 -7 59 -27 130
-11 41 -23 84 -25 95 -3 11 -19 70 -35 130 -17 61 -33 117 -35 125 -2 8 -8 30
-14 48 -5 18 -10 34 -11 37 0 3 -2 10 -4 17 -9 33 -48 175 -52 188 -5 21 -19
72 -44 160 -12 41 -26 89 -30 105 -21 75 -52 183 -61 215 -6 19 -13 47 -16 63
-3 15 -9 30 -14 33 -5 3 -9 16 -9 28 0 21 -4 24 -42 23 -24 0 -69 -8 -101 -18z"/>
<path d="M11562 7822 c-6 -15 -23 -72 -37 -127 -14 -55 -30 -111 -36 -125 -5
-14 -11 -34 -14 -45 -2 -11 -20 -76 -40 -145 -21 -69 -38 -132 -40 -140 -2 -8
-10 -36 -18 -62 -8 -26 -12 -49 -9 -52 3 -4 0 -6 -7 -6 -7 0 -9 -5 -6 -10 4
-6 1 -17 -5 -25 -7 -8 -10 -15 -7 -15 3 0 -2 -21 -10 -47 -12 -40 -37 -127
-47 -168 -2 -5 -5 -17 -9 -25 -5 -16 -74 -262 -82 -293 -2 -10 -7 -28 -10 -40
-17 -60 -21 -57 42 -37 88 28 193 22 263 -15 58 -31 179 -141 180 -163 0 -7 7
-15 15 -18 8 -4 15 -12 15 -19 0 -8 6 -20 13 -27 21 -20 111 -212 145 -308 33
-93 75 -229 92 -300 6 -25 12 -52 15 -60 10 -41 55 -244 59 -275 2 -11 8 -47
14 -80 14 -75 22 -125 37 -225 2 -19 7 -46 9 -60 3 -14 7 -47 10 -75 4 -27 9
-63 12 -79 4 -17 8 -50 10 -75 3 -46 9 -99 19 -176 8 -61 18 -170 30 -320 2
-33 7 -87 10 -120 28 -325 45 -759 48 -1202 1 -178 5 -323 8 -323 6 0 33 94
45 155 5 24 9 41 27 117 8 32 12 60 9 63 -3 3 -1 5 4 5 5 0 10 8 10 18 1 17 7
50 20 107 3 17 8 39 9 50 2 11 4 20 5 20 2 0 4 9 6 20 1 11 5 31 9 45 6 27 23
109 31 150 3 14 7 32 9 40 2 8 7 31 10 50 3 19 13 68 21 108 8 41 17 88 20
105 5 35 8 54 18 107 4 19 11 60 16 90 5 30 12 69 15 85 3 17 8 50 11 75 3 25
7 52 9 60 2 8 7 35 10 60 9 64 15 101 21 132 3 14 7 48 10 75 6 60 11 96 19
153 11 80 16 124 20 170 1 25 4 45 5 45 1 0 4 23 6 50 2 28 5 68 8 90 3 22 8
85 11 139 4 55 8 108 10 119 7 33 18 375 18 542 0 151 -9 405 -18 505 -7 75
-15 144 -19 170 -3 14 -7 50 -11 80 -13 103 -15 115 -21 140 -3 14 -8 36 -10
50 -2 14 -7 36 -10 50 -3 14 -8 36 -10 50 -2 14 -8 41 -14 60 -23 85 -41 150
-41 155 -1 10 -68 193 -92 250 -28 67 -83 173 -99 192 -6 7 -7 13 -2 13 5 0 5
4 -1 8 -15 10 -75 101 -75 112 0 6 -4 10 -8 10 -5 0 -20 16 -34 35 -49 70
-145 163 -233 226 -42 30 -190 116 -190 110 0 -2 -13 2 -28 8 -16 6 -34 11
-42 11 -8 0 -16 4 -20 9 -3 6 -13 9 -23 9 -9 0 -36 2 -58 6 -39 5 -43 3 -52
-22z"/>
<path d="M6876 4496 c7 -91 14 -162 19 -186 4 -14 8 -40 10 -59 5 -40 13 -95
20 -131 2 -14 7 -43 10 -65 4 -22 11 -62 16 -90 5 -27 12 -66 15 -85 3 -19 10
-53 14 -74 5 -22 7 -44 4 -48 -3 -4 -1 -8 4 -8 5 0 8 -10 7 -22 -1 -13 2 -29
8 -35 5 -7 7 -13 4 -13 -3 0 -1 -17 4 -37 4 -21 10 -51 13 -68 3 -16 8 -41 11
-55 4 -14 8 -38 11 -55 3 -16 7 -37 10 -45 3 -8 8 -26 10 -40 3 -14 10 -43 16
-65 14 -48 12 -42 22 -85 40 -173 174 -524 224 -582 8 -10 11 -18 7 -18 -4 0
-1 -8 7 -17 8 -10 27 -40 43 -68 30 -54 145 -220 169 -245 8 -8 20 -27 27 -42
7 -16 16 -28 21 -28 4 0 8 -7 8 -15 0 -8 5 -15 10 -15 6 0 10 -6 10 -14 0 -8
4 -16 9 -18 4 -1 45 -59 90 -128 45 -69 85 -129 89 -135 4 -5 11 -17 15 -25 4
-8 15 -27 25 -42 64 -99 212 -382 265 -508 8 -19 29 -67 45 -107 17 -39 28
-74 25 -77 -4 -3 -1 -6 6 -6 7 0 10 -4 6 -9 -3 -5 -1 -12 4 -15 4 -3 12 -20
16 -38 4 -18 8 -35 9 -38 1 -3 4 -9 7 -15 6 -10 61 -171 65 -190 1 -5 14 -50
29 -100 14 -49 29 -101 31 -114 3 -14 7 -28 10 -33 5 -8 13 -42 19 -78 1 -8 5
-22 8 -30 4 -8 20 -71 37 -140 16 -69 34 -141 39 -160 5 -19 13 -56 16 -83 4
-26 11 -50 16 -52 8 -5 26 51 35 105 2 14 7 36 10 50 3 14 8 36 10 50 3 14 12
52 21 85 21 85 25 98 27 115 1 9 5 21 10 28 4 6 5 12 2 12 -2 0 0 15 6 33 8
28 14 47 33 120 3 9 7 27 10 38 5 24 73 245 82 269 3 8 7 20 9 25 4 19 56 160
70 195 9 19 19 44 24 55 59 144 140 316 153 326 5 3 8 9 8 13 -2 7 29 69 38
76 3 3 22 35 41 72 19 38 38 68 43 68 4 0 7 4 7 9 0 11 79 140 97 159 7 7 13
16 13 20 0 9 110 166 188 269 17 24 32 48 32 53 0 6 5 10 10 10 6 0 10 7 10
15 0 8 4 15 8 15 4 0 16 13 25 30 10 16 23 35 30 42 7 7 34 47 61 88 27 41 62
94 77 117 16 23 29 46 29 52 0 6 5 11 10 11 6 0 10 4 10 10 0 5 20 46 44 90
25 44 42 80 39 80 -3 0 2 11 11 25 9 14 13 25 9 25 -5 0 -3 4 2 8 9 6 82 191
90 226 1 6 7 24 13 39 7 16 12 32 12 36 0 5 9 37 20 71 11 35 22 73 24 84 3
12 12 50 21 86 9 36 18 74 20 85 2 11 7 31 10 45 3 14 8 36 11 50 5 30 13 66
20 100 2 14 7 39 9 55 6 34 12 67 15 75 1 3 2 8 2 11 -1 4 3 33 8 65 19 114
36 260 45 389 3 44 8 106 11 138 l5 57 -58 0 c-388 -2 -2296 10 -2300 14 -3 2
-15 1 -28 -4 -13 -5 -26 -6 -29 -3 -3 3 -207 7 -454 8 l-449 2 3 -41z"/>
</g>
</svg>
